<svg width="311" height="268" viewBox="0 0 311 268" fill="none" xmlns="http://www.w3.org/2000/svg">
<rect x="0.5" y="0.5" width="310" height="267" fill="#F9F9F9" stroke="#EEEEEE"/>
<rect x="40" y="81" width="231" height="20" fill="#2563EB" fill-opacity="0.3"/>
<rect x="48" y="88" width="83" height="6" fill="#E7DCF1"/>
<path d="M257 88L257 94" stroke="#E7DCF1" stroke-width="1.5" stroke-linecap="round"/>
<path d="M260 91L254 91" stroke="#E7DCF1" stroke-width="1.5" stroke-linecap="round"/>
<rect x="40" y="167" width="231" height="20" fill="#2563EB" fill-opacity="0.3"/>
<rect x="48" y="174" width="83" height="6" fill="#E7DCF1"/>
<path d="M257 174L257 180" stroke="#E7DCF1" stroke-width="1.5" stroke-linecap="round"/>
<path d="M260 177L254 177" stroke="#E7DCF1" stroke-width="1.5" stroke-linecap="round"/>
<rect x="40" y="109" width="231" height="50" fill="#2563EB" fill-opacity="0.3"/>
<rect x="48" y="116" width="83" height="6" fill="#E7DCF1"/>
<rect x="48" y="132" width="215" height="4" fill="#E7DCF1"/>
<rect x="48" y="140" width="215" height="4" fill="#E7DCF1"/>
<rect x="48" y="148" width="174" height="4" fill="#E7DCF1"/>
<path d="M260 119L254 119" stroke="#E7DCF1" stroke-width="1.5" stroke-linecap="round"/>
</svg>
