<svg width="311" height="268" viewBox="0 0 311 268" fill="none" xmlns="http://www.w3.org/2000/svg">
<rect x="0.5" y="0.5" width="310" height="267" fill="#F9F9F9" stroke="#EEEEEE"/>
<g clip-path="url(#clip0_2597_2698)">
<path d="M47.84 94.3865C47.84 99.1718 44 103 39.2 103C37.36 103 35.6 102.362 34.16 101.405C33.44 100.926 32.72 100.288 32.16 99.4908C30.72 97.5767 30 95.184 30 92.3129C30 88.7239 31.04 85.5337 33.2 82.8221C35.36 80.1104 38.32 78.1963 42.08 77V79.2331C39.92 80.9877 38.56 83.2209 38.16 85.8528C38.48 85.773 38.88 85.773 39.2 85.773C44 85.6933 47.84 89.6012 47.84 94.3865ZM61.36 85.6933C60.96 85.6933 60.64 85.6933 60.32 85.773C60.72 83.1411 62.08 80.908 64.24 79.1534V77C60.48 78.1166 57.52 80.1104 55.36 82.8221C53.2 85.5337 52.16 88.7239 52.16 92.3129C52.16 95.184 52.88 97.5767 54.32 99.4908C54.96 100.288 55.6 100.926 56.32 101.405C57.76 102.442 59.44 103 61.36 103C66.16 103 70 99.1718 70 94.3865C70 89.6012 66.16 85.6933 61.36 85.6933Z" fill="#2563EB" fill-opacity="0.14"/>
</g>
<rect width="209" height="8" transform="translate(62 106)" fill="#2563EB" fill-opacity="0.14"/>
<rect width="209" height="8" transform="translate(62 122)" fill="#2563EB" fill-opacity="0.14"/>
<rect width="209" height="8" transform="translate(62 138)" fill="#2563EB" fill-opacity="0.14"/>
<rect width="136" height="8" transform="translate(62 154)" fill="#2563EB" fill-opacity="0.14"/>
<rect x="215" y="172" width="56" height="19" rx="9.5" fill="#2563EB" fill-opacity="0.3"/>
<defs>
<clipPath id="clip0_2597_2698">
<rect width="40" height="26" fill="white" transform="translate(30 77)"/>
</clipPath>
</defs>
</svg>
