<svg width="311" height="268" viewBox="0 0 311 268" fill="none" xmlns="http://www.w3.org/2000/svg">
<rect x="0.5" y="0.5" width="310" height="267" fill="#F9F9F9" stroke="#EEEEEE"/>
<rect x="59" y="110" width="193" height="47" rx="8" fill="#2563EB" fill-opacity="0.3"/>
<rect x="85" y="129" width="83" height="9" fill="#E7DCF1"/>
<path d="M222.75 124.25H215.438M222.75 124.25V131.563M222.75 124.25L213.812 133.188M209 124.25C206.573 124.25 206.543 124.25 205.616 124.722C204.801 125.138 204.138 125.801 203.722 126.616C203.25 127.543 203.25 128.757 203.25 131.183V136.817C203.25 139.243 203.25 140.457 203.722 141.384C204.138 142.199 204.801 142.862 205.616 143.278C206.543 143.75 207.757 143.75 210.183 143.75H215.817C218.243 143.75 219.457 143.75 220.384 143.278C221.199 142.862 221.862 142.199 222.278 141.384C222.75 140.457 222.75 140.618 222.75 138.192V137" stroke="#E7DCF1" stroke-width="3" stroke-linecap="round" stroke-linejoin="round"/>
</svg>
