<svg width="311" height="268" viewBox="0 0 311 268" fill="none" xmlns="http://www.w3.org/2000/svg">
<rect x="0.5" y="0.5" width="310" height="267" fill="#F9F9F9" stroke="#EEEEEE"/>
<rect x="24.2267" y="37" width="76.3067" height="40.0933" fill="#2563EB" fill-opacity="0.3"/>
<rect x="24.2267" y="88.7333" width="18.1067" height="40.0933" fill="#2563EB" fill-opacity="0.3"/>
<rect x="117.347" y="139.173" width="18.1067" height="40.0933" fill="#2563EB" fill-opacity="0.3"/>
<rect x="43.6267" y="88.7333" width="18.1067" height="40.0933" fill="#2563EB" fill-opacity="0.3"/>
<rect x="136.747" y="139.173" width="37.5067" height="40.0933" fill="#2563EB" fill-opacity="0.3"/>
<rect x="210.467" y="139.173" width="50.44" height="40.0933" fill="#2563EB" fill-opacity="0.3"/>
<rect x="262.2" y="139.173" width="24.5733" height="40.0933" fill="#2563EB" fill-opacity="0.3"/>
<rect x="63.0266" y="88.7333" width="18.1067" height="40.0933" fill="#2563EB" fill-opacity="0.3"/>
<rect x="82.4266" y="88.7333" width="18.1067" height="40.0933" fill="#2563EB" fill-opacity="0.3"/>
<rect x="175.547" y="139.173" width="18.1067" height="40.0933" fill="#2563EB" fill-opacity="0.3"/>
<rect x="117.347" y="37" width="37.5067" height="40.0933" fill="#2563EB" fill-opacity="0.3"/>
<rect x="117.347" y="88.7333" width="37.5067" height="19.4" fill="#2563EB" fill-opacity="0.3"/>
<rect x="117.347" y="109.427" width="37.5067" height="19.4" fill="#2563EB" fill-opacity="0.3"/>
<rect x="156.147" y="88.7333" width="37.5067" height="19.4" fill="#2563EB" fill-opacity="0.3"/>
<rect x="156.147" y="109.427" width="37.5067" height="19.4" fill="#2563EB" fill-opacity="0.3"/>
<rect x="210.467" y="37" width="24.5733" height="40.0933" fill="#2563EB" fill-opacity="0.3"/>
<rect x="24.2267" y="139.173" width="24.5733" height="19.4" fill="#2563EB" fill-opacity="0.3"/>
<rect x="24.2267" y="159.867" width="24.5733" height="19.4" fill="#2563EB" fill-opacity="0.3"/>
<rect x="24.2267" y="190.907" width="50.44" height="19.4" fill="#2563EB" fill-opacity="0.3"/>
<rect x="75.96" y="190.907" width="24.5733" height="19.4" fill="#2563EB" fill-opacity="0.3"/>
<rect x="50.0934" y="211.6" width="50.44" height="19.4" fill="#2563EB" fill-opacity="0.3"/>
<rect x="117.347" y="211.6" width="76.3067" height="19.4" fill="#2563EB" fill-opacity="0.3"/>
<rect x="117.347" y="190.907" width="37.5067" height="19.4" fill="#2563EB" fill-opacity="0.3"/>
<rect x="156.147" y="190.907" width="37.5067" height="19.4" fill="#2563EB" fill-opacity="0.3"/>
<rect x="236.333" y="190.907" width="50.44" height="19.4" fill="#2563EB" fill-opacity="0.3"/>
<rect x="210.467" y="190.907" width="24.5733" height="19.4" fill="#2563EB" fill-opacity="0.3"/>
<rect x="210.467" y="211.6" width="50.44" height="19.4" fill="#2563EB" fill-opacity="0.3"/>
<rect x="262.2" y="211.6" width="24.5733" height="19.4" fill="#2563EB" fill-opacity="0.3"/>
<rect x="24.2267" y="211.6" width="24.5733" height="19.4" fill="#2563EB" fill-opacity="0.3"/>
<rect x="210.467" y="88.7333" width="24.5733" height="40.0933" fill="#2563EB" fill-opacity="0.3"/>
<rect x="236.333" y="88.7333" width="50.44" height="40.0933" fill="#2563EB" fill-opacity="0.3"/>
<rect x="236.333" y="37" width="24.5733" height="40.0933" fill="#2563EB" fill-opacity="0.3"/>
<rect x="50.0934" y="139.173" width="24.5733" height="19.4" fill="#2563EB" fill-opacity="0.3"/>
<rect x="50.0934" y="159.867" width="24.5733" height="19.4" fill="#2563EB" fill-opacity="0.3"/>
<rect x="262.2" y="37" width="24.5733" height="40.0933" fill="#2563EB" fill-opacity="0.3"/>
<rect x="75.96" y="139.173" width="24.5733" height="19.4" fill="#2563EB" fill-opacity="0.3"/>
<rect x="75.96" y="159.867" width="24.5733" height="19.4" fill="#2563EB" fill-opacity="0.3"/>
<rect x="156.147" y="37" width="37.5067" height="40.0933" fill="#2563EB" fill-opacity="0.3"/>
</svg>
