<svg width="311" height="268" viewBox="0 0 311 268" fill="none" xmlns="http://www.w3.org/2000/svg">
<rect x="0.5" y="0.5" width="310" height="267" fill="#F9F9F9" stroke="#EEEEEE"/>
<rect x="40.5" y="41.5" width="111" height="186" stroke="#2563EB" stroke-opacity="0.3"/>
<rect width="92" height="25" transform="translate(50 51)" fill="#2563EB" fill-opacity="0.14"/>
<path d="M101 67.3889V59.6111C101 59 100.5 58.5 99.8889 58.5H92.1111C91.5 58.5 91 59 91 59.6111V67.3889C91 68 91.5 68.5 92.1111 68.5H99.8889C100.5 68.5 101 68 101 67.3889ZM94.0556 64.3333L95.4444 66.0056L97.3889 63.5L99.8889 66.8333H92.1111L94.0556 64.3333Z" fill="#2563EB" fill-opacity="0.3"/>
<rect width="50" height="40" transform="translate(50 114)" fill="#2563EB" fill-opacity="0.14"/>
<path d="M80 137.889V130.111C80 129.5 79.5 129 78.8889 129H71.1111C70.5 129 70 129.5 70 130.111V137.889C70 138.5 70.5 139 71.1111 139H78.8889C79.5 139 80 138.5 80 137.889ZM73.0556 134.833L74.4444 136.506L76.3889 134L78.8889 137.333H71.1111L73.0556 134.833Z" fill="#2563EB" fill-opacity="0.3"/>
<rect x="50" y="80" width="70" height="8" fill="#2563EB" fill-opacity="0.3"/>
<rect x="50" y="96" width="92" height="3" fill="#2563EB" fill-opacity="0.14"/>
<rect x="50" y="166" width="92" height="3" fill="#2563EB" fill-opacity="0.14"/>
<rect x="102" y="114" width="40" height="3" fill="#2563EB" fill-opacity="0.14"/>
<rect x="102" y="122" width="40" height="3" fill="#2563EB" fill-opacity="0.14"/>
<rect x="102" y="130" width="40" height="3" fill="#2563EB" fill-opacity="0.14"/>
<rect x="102" y="138" width="30" height="3" fill="#2563EB" fill-opacity="0.14"/>
<rect x="50" y="103" width="51" height="3" fill="#2563EB" fill-opacity="0.14"/>
<rect x="50" y="173" width="92" height="3" fill="#2563EB" fill-opacity="0.14"/>
<rect x="50" y="180" width="92" height="3" fill="#2563EB" fill-opacity="0.14"/>
<rect x="50" y="187" width="48" height="3" fill="#2563EB" fill-opacity="0.14"/>
<rect x="50" y="206" width="38" height="12" rx="2" fill="#2563EB" fill-opacity="0.3"/>
<rect x="159.5" y="41.5" width="111" height="186" stroke="#2563EB" stroke-opacity="0.3"/>
<rect width="92" height="25" transform="translate(169 51)" fill="#2563EB" fill-opacity="0.14"/>
<path d="M220 67.3889V59.6111C220 59 219.5 58.5 218.889 58.5H211.111C210.5 58.5 210 59 210 59.6111V67.3889C210 68 210.5 68.5 211.111 68.5H218.889C219.5 68.5 220 68 220 67.3889ZM213.056 64.3333L214.444 66.0056L216.389 63.5L218.889 66.8333H211.111L213.056 64.3333Z" fill="#2563EB" fill-opacity="0.3"/>
<rect width="50" height="40" transform="translate(169 114)" fill="#2563EB" fill-opacity="0.14"/>
<path d="M199 137.889V130.111C199 129.5 198.5 129 197.889 129H190.111C189.5 129 189 129.5 189 130.111V137.889C189 138.5 189.5 139 190.111 139H197.889C198.5 139 199 138.5 199 137.889ZM192.056 134.833L193.444 136.506L195.389 134L197.889 137.333H190.111L192.056 134.833Z" fill="#2563EB" fill-opacity="0.3"/>
<rect x="169" y="80" width="70" height="8" fill="#2563EB" fill-opacity="0.3"/>
<rect x="169" y="96" width="92" height="3" fill="#2563EB" fill-opacity="0.14"/>
<rect x="169" y="166" width="92" height="3" fill="#2563EB" fill-opacity="0.14"/>
<rect x="221" y="114" width="40" height="3" fill="#2563EB" fill-opacity="0.14"/>
<rect x="221" y="122" width="40" height="3" fill="#2563EB" fill-opacity="0.14"/>
<rect x="221" y="130" width="40" height="3" fill="#2563EB" fill-opacity="0.14"/>
<rect x="221" y="138" width="30" height="3" fill="#2563EB" fill-opacity="0.14"/>
<rect x="169" y="103" width="51" height="3" fill="#2563EB" fill-opacity="0.14"/>
<rect x="169" y="173" width="92" height="3" fill="#2563EB" fill-opacity="0.14"/>
<rect x="169" y="180" width="92" height="3" fill="#2563EB" fill-opacity="0.14"/>
<rect x="169" y="187" width="48" height="3" fill="#2563EB" fill-opacity="0.14"/>
<rect x="169" y="206" width="38" height="12" rx="2" fill="#2563EB" fill-opacity="0.3"/>
</svg>
