<svg width="311" height="268" viewBox="0 0 311 268" fill="none" xmlns="http://www.w3.org/2000/svg">
<rect x="0.5" y="0.5" width="310" height="267" fill="#F9F9F9" stroke="#EEEEEE"/>
<rect x="40.5" y="53.5" width="230" height="159" stroke="#2563EB" stroke-opacity="0.3"/>
<rect x="109" y="140" width="93" height="20" fill="#2563EB" fill-opacity="0.3"/>
<rect x="96" y="170" width="119" height="8" fill="#2563EB" fill-opacity="0.14"/>
<circle cx="156" cy="110" r="20" fill="#2563EB" fill-opacity="0.14"/>
<path d="M154.144 104.628C154.93 102.667 155.324 101.686 156 101.686C156.676 101.686 157.07 102.667 157.856 104.628L157.893 104.719C158.337 105.827 158.559 106.381 159.012 106.717C159.465 107.054 160.06 107.107 161.248 107.214L161.463 107.233C163.409 107.407 164.382 107.494 164.59 108.113C164.799 108.732 164.076 109.39 162.631 110.704L162.149 111.143C161.417 111.809 161.051 112.141 160.881 112.578C160.849 112.659 160.823 112.742 160.802 112.827C160.69 113.282 160.797 113.764 161.011 114.73L161.078 115.03C161.471 116.805 161.668 117.692 161.325 118.075C161.196 118.218 161.029 118.321 160.844 118.371C160.348 118.507 159.643 117.933 158.234 116.784C157.309 116.031 156.846 115.654 156.315 115.569C156.106 115.535 155.894 115.535 155.685 115.569C155.154 115.654 154.691 116.031 153.766 116.784C152.357 117.933 151.652 118.507 151.156 118.371C150.971 118.321 150.804 118.218 150.675 118.075C150.332 117.692 150.529 116.805 150.922 115.03L150.989 114.73C151.203 113.764 151.31 113.282 151.198 112.827C151.177 112.742 151.151 112.659 151.119 112.578C150.949 112.141 150.583 111.809 149.851 111.143L149.369 110.704C147.924 109.39 147.201 108.732 147.41 108.113C147.618 107.494 148.591 107.407 150.537 107.233L150.751 107.214C151.94 107.107 152.535 107.054 152.988 106.717C153.441 106.381 153.663 105.827 154.107 104.719L154.144 104.628Z" fill="#2563EB" fill-opacity="0.3"/>
<path d="M156 101.186C156.633 101.186 157.029 101.664 157.321 102.172C157.624 102.7 157.934 103.476 158.321 104.441L158.357 104.533C158.583 105.096 158.739 105.484 158.892 105.775C159.04 106.056 159.166 106.208 159.311 106.316C159.456 106.424 159.638 106.501 159.95 106.561C160.272 106.624 160.689 106.661 161.293 106.715L161.508 106.735C162.464 106.82 163.238 106.889 163.793 107.02C164.335 107.148 164.871 107.38 165.064 107.954C165.257 108.527 164.971 109.037 164.617 109.466C164.253 109.907 163.677 110.429 162.967 111.075L162.485 111.513C162.113 111.852 161.857 112.084 161.671 112.286C161.492 112.48 161.402 112.62 161.347 112.759C161.323 112.82 161.303 112.883 161.287 112.947C161.252 113.092 161.245 113.258 161.28 113.521C161.316 113.793 161.39 114.131 161.499 114.622L161.566 114.922C161.76 115.797 161.916 116.494 161.975 117.018C162.03 117.509 162.03 118.038 161.697 118.409C161.504 118.623 161.253 118.778 160.975 118.854C160.494 118.985 160.021 118.748 159.608 118.478C159.166 118.19 158.613 117.738 157.918 117.172C157.448 116.789 157.122 116.524 156.849 116.341C156.583 116.163 156.404 116.09 156.237 116.063C156.08 116.038 155.92 116.038 155.763 116.063C155.596 116.09 155.417 116.164 155.151 116.341C154.877 116.524 154.551 116.789 154.081 117.172C153.387 117.738 152.834 118.19 152.392 118.478C151.979 118.748 151.506 118.985 151.025 118.854C150.747 118.778 150.496 118.623 150.303 118.409C149.97 118.038 149.97 117.508 150.026 117.018C150.085 116.494 150.24 115.797 150.434 114.922L150.5 114.622C150.609 114.131 150.684 113.793 150.72 113.521C150.755 113.258 150.748 113.092 150.712 112.947C150.697 112.883 150.678 112.82 150.654 112.759C150.599 112.62 150.508 112.48 150.328 112.286C150.142 112.084 149.887 111.852 149.515 111.513L149.033 111.075C148.323 110.429 147.748 109.907 147.384 109.466C147.029 109.037 146.743 108.527 146.936 107.954C147.129 107.38 147.664 107.148 148.206 107.02C148.762 106.889 149.536 106.82 150.492 106.735L150.706 106.715C151.311 106.661 151.727 106.624 152.05 106.561C152.362 106.501 152.545 106.424 152.69 106.316C152.835 106.208 152.96 106.055 153.108 105.775C153.261 105.484 153.417 105.096 153.643 104.533L153.68 104.441C154.067 103.476 154.376 102.7 154.679 102.172C154.97 101.664 155.367 101.186 156 101.186Z" stroke="#2563EB" stroke-opacity="0.3"/>
</svg>
