<svg width="311" height="268" viewBox="0 0 311 268" fill="none" xmlns="http://www.w3.org/2000/svg">
<rect x="0.5" y="0.5" width="310" height="267" fill="#F9F9F9" stroke="#EEEEEE"/>
<rect width="173" height="8" transform="translate(98 80)" fill="#2563EB" fill-opacity="0.14"/>
<rect width="173" height="8" transform="translate(98 130)" fill="#2563EB" fill-opacity="0.14"/>
<rect width="173" height="8" transform="translate(98 180)" fill="#2563EB" fill-opacity="0.14"/>
<path d="M60 69C68.2843 69 75 75.7157 75 84C75 92.2843 68.2843 99 60 99C51.7157 99 45 92.2843 45 84C45 75.7157 51.7157 69 60 69ZM67.3076 78.2314C66.8834 77.878 66.252 77.9353 65.8984 78.3594L60.3691 84.9951C59.6951 85.804 59.2543 86.3292 58.8799 86.6699C58.5269 86.991 58.3556 87.031 58.2441 87.0361C58.1327 87.0411 57.9593 87.0169 57.5791 86.7295C57.1752 86.4241 56.6883 85.9402 55.9434 85.1953L54.041 83.293C53.6506 82.9026 53.0175 82.9028 52.627 83.293C52.2364 83.6835 52.2364 84.3165 52.627 84.707L54.5293 86.6104C55.2323 87.3134 55.8326 87.9156 56.373 88.3242C56.9364 88.7502 57.5655 89.069 58.335 89.0342C59.1045 88.9992 59.7031 88.6247 60.2256 88.1494C60.7267 87.6935 61.2698 87.0391 61.9062 86.2754L67.4355 79.6406C67.7889 79.2164 67.7316 78.585 67.3076 78.2314Z" fill="#2563EB" fill-opacity="0.3"/>
<path d="M60 119C68.2843 119 75 125.716 75 134C75 142.284 68.2843 149 60 149C51.7157 149 45 142.284 45 134C45 125.716 51.7157 119 60 119ZM67.3076 128.231C66.8834 127.878 66.252 127.935 65.8984 128.359L60.3691 134.995C59.6951 135.804 59.2543 136.329 58.8799 136.67C58.5269 136.991 58.3556 137.031 58.2441 137.036C58.1327 137.041 57.9593 137.017 57.5791 136.729C57.1752 136.424 56.6883 135.94 55.9434 135.195L54.041 133.293C53.6506 132.903 53.0175 132.903 52.627 133.293C52.2364 133.683 52.2364 134.317 52.627 134.707L54.5293 136.61C55.2323 137.313 55.8326 137.916 56.373 138.324C56.9364 138.75 57.5655 139.069 58.335 139.034C59.1045 138.999 59.7031 138.625 60.2256 138.149C60.7267 137.693 61.2698 137.039 61.9062 136.275L67.4355 129.641C67.7889 129.216 67.7316 128.585 67.3076 128.231Z" fill="#2563EB" fill-opacity="0.3"/>
<path d="M60 169C68.2843 169 75 175.716 75 184C75 192.284 68.2843 199 60 199C51.7157 199 45 192.284 45 184C45 175.716 51.7157 169 60 169ZM67.3076 178.231C66.8834 177.878 66.252 177.935 65.8984 178.359L60.3691 184.995C59.6951 185.804 59.2543 186.329 58.8799 186.67C58.5269 186.991 58.3556 187.031 58.2441 187.036C58.1327 187.041 57.9593 187.017 57.5791 186.729C57.1752 186.424 56.6883 185.94 55.9434 185.195L54.041 183.293C53.6506 182.903 53.0175 182.903 52.627 183.293C52.2364 183.683 52.2364 184.317 52.627 184.707L54.5293 186.61C55.2323 187.313 55.8326 187.916 56.373 188.324C56.9364 188.75 57.5655 189.069 58.335 189.034C59.1045 188.999 59.7031 188.625 60.2256 188.149C60.7267 187.693 61.2698 187.039 61.9062 186.275L67.4355 179.641C67.7889 179.216 67.7316 178.585 67.3076 178.231Z" fill="#2563EB" fill-opacity="0.3"/>
</svg>
