<svg width="311" height="268" viewBox="0 0 311 268" fill="none" xmlns="http://www.w3.org/2000/svg">
<rect x="0.5" y="0.5" width="310" height="267" fill="#F9F9F9" stroke="#EEEEEE"/>
<path d="M285 134L285.707 133.293L286.414 134L285.707 134.707L285 134ZM270 135C269.448 135 269 134.552 269 134C269 133.448 269.448 133 270 133V134V135ZM279 128L279.707 127.293L285.707 133.293L285 134L284.293 134.707L278.293 128.707L279 128ZM285 134L285.707 134.707L279.707 140.707L279 140L278.293 139.293L284.293 133.293L285 134ZM285 134V135H270V134V133H285V134Z" fill="#2563EB" fill-opacity="0.3"/>
<path d="M26 134L25.2929 133.293L24.5858 134L25.2929 134.707L26 134ZM41 135C41.5523 135 42 134.552 42 134C42 133.448 41.5523 133 41 133V134V135ZM32 128L31.2929 127.293L25.2929 133.293L26 134L26.7071 134.707L32.7071 128.707L32 128ZM26 134L25.2929 134.707L31.2929 140.707L32 140L32.7071 139.293L26.7071 133.293L26 134ZM26 134V135H41V134V133H26V134Z" fill="#2563EB" fill-opacity="0.3"/>
<rect width="211" height="168" transform="translate(50 50)" fill="#2563EB" fill-opacity="0.14"/>
<path d="M168.5 144.111V123.889C168.5 122.3 167.2 121 165.611 121H145.389C143.8 121 142.5 122.3 142.5 123.889V144.111C142.5 145.7 143.8 147 145.389 147H165.611C167.2 147 168.5 145.7 168.5 144.111ZM150.444 136.167L154.056 140.514L159.111 134L165.611 142.667H145.389L150.444 136.167Z" fill="#2563EB" fill-opacity="0.3"/>
</svg>
