<svg width="311" height="268" viewBox="0 0 311 268" fill="none" xmlns="http://www.w3.org/2000/svg">
<rect x="0.5" y="0.5" width="310" height="267" fill="#F9F9F9" stroke="#EEEEEE"/>
<rect width="231" height="152" transform="translate(40 58)" fill="#2563EB" fill-opacity="0.08"/>
<path d="M186 157.722V110.278C186 106.55 182.95 103.5 179.222 103.5H131.778C128.05 103.5 125 106.55 125 110.278V157.722C125 161.45 128.05 164.5 131.778 164.5H179.222C182.95 164.5 186 161.45 186 157.722ZM143.639 139.083L152.111 149.284L163.972 134L179.222 154.333H131.778L143.639 139.083Z" fill="#2563EB" fill-opacity="0.1"/>
<rect x="117" y="88" width="78" height="11" fill="#2563EB" fill-opacity="0.3"/>
<rect x="74" y="124" width="163" height="6" fill="#2563EB" fill-opacity="0.5"/>
<rect x="105" y="135" width="101" height="6" fill="#2563EB" fill-opacity="0.5"/>
<rect x="137" y="171" width="38" height="9" rx="2" fill="#2563EB" fill-opacity="0.3"/>
</svg>
