<svg width="311" height="268" viewBox="0 0 311 268" fill="none" xmlns="http://www.w3.org/2000/svg">
<rect x="0.5" y="0.5" width="310" height="267" fill="#F9F9F9" stroke="#EEEEEE"/>
<rect width="231" height="168" transform="translate(40 54)" fill="#2563EB" fill-opacity="0.14"/>
<path d="M168.5 148.111V127.889C168.5 126.3 167.2 125 165.611 125H145.389C143.8 125 142.5 126.3 142.5 127.889V148.111C142.5 149.7 143.8 151 145.389 151H165.611C167.2 151 168.5 149.7 168.5 148.111ZM150.444 140.167L154.056 144.514L159.111 138L165.611 146.667H145.389L150.444 140.167Z" fill="#2563EB" fill-opacity="0.2"/>
<circle cx="89" cy="180" r="7" fill="#2563EB" fill-opacity="0.3"/>
<circle cx="136" cy="95" r="7" fill="#2563EB" fill-opacity="0.3"/>
<circle cx="136" cy="95" r="10" fill="#2563EB" fill-opacity="0.2"/>
<circle cx="136" cy="95" r="14.5" stroke="#7FA3F0" stroke-linecap="round" stroke-dasharray="5 5"/>
<circle cx="220" cy="153" r="7" fill="#2563EB" fill-opacity="0.3"/>
<g filter="url(#filter0_d_2597_2734)">
<rect x="94" y="33" width="83" height="42" rx="6" fill="#7FA3F0"/>
<rect x="105" y="39" width="40" height="10" fill="#2563EB" fill-opacity="0.3"/>
<rect x="105" y="59" width="61" height="4" fill="#DBE4F7"/>
<rect x="105" y="65" width="29" height="4" fill="#DBE4F7"/>
<path fill-rule="evenodd" clip-rule="evenodd" d="M130.5 73C130.302 73 130.109 73.0587 129.945 73.1686C129.78 73.2785 129.652 73.4346 129.576 73.6173C129.501 73.8 129.481 74.0011 129.519 74.195C129.558 74.389 129.653 74.5671 129.793 74.707L134.793 79.707C134.981 79.8945 135.235 79.9998 135.5 79.9998C135.765 79.9998 136.02 79.8945 136.207 79.707L141.207 74.707C141.347 74.5671 141.442 74.389 141.481 74.195C141.519 74.0011 141.499 73.8 141.424 73.6173C141.348 73.4346 141.22 73.2785 141.055 73.1686C140.891 73.0587 140.698 73 140.5 73H130.5Z" fill="#7FA3F0"/>
</g>
<defs>
<filter id="filter0_d_2597_2734" x="86" y="29" width="99" height="62.9998" filterUnits="userSpaceOnUse" color-interpolation-filters="sRGB">
<feFlood flood-opacity="0" result="BackgroundImageFix"/>
<feColorMatrix in="SourceAlpha" type="matrix" values="0 0 0 0 0 0 0 0 0 0 0 0 0 0 0 0 0 0 127 0" result="hardAlpha"/>
<feOffset dy="4"/>
<feGaussianBlur stdDeviation="4"/>
<feComposite in2="hardAlpha" operator="out"/>
<feColorMatrix type="matrix" values="0 0 0 0 0 0 0 0 0 0 0 0 0 0 0 0 0 0 0.12 0"/>
<feBlend mode="normal" in2="BackgroundImageFix" result="effect1_dropShadow_2597_2734"/>
<feBlend mode="normal" in="SourceGraphic" in2="effect1_dropShadow_2597_2734" result="shape"/>
</filter>
</defs>
</svg>
