<svg width="311" height="268" viewBox="0 0 311 268" fill="none" xmlns="http://www.w3.org/2000/svg">
<rect x="0.5" y="0.5" width="310" height="267" fill="#F9F9F9" stroke="#EEEEEE"/>
<rect width="116" height="68" transform="translate(30 40)" fill="#2563EB" fill-opacity="0.14"/>
<path d="M101 84.1111V63.8889C101 62.3 99.7 61 98.1111 61H77.8889C76.3 61 75 62.3 75 63.8889V84.1111C75 85.7 76.3 87 77.8889 87H98.1111C99.7 87 101 85.7 101 84.1111ZM82.9444 76.1667L86.5556 80.5144L91.6111 74L98.1111 82.6667H77.8889L82.9444 76.1667Z" fill="#2563EB" fill-opacity="0.3"/>
<rect width="117" height="100" transform="translate(154 40)" fill="#2563EB" fill-opacity="0.14"/>
<path d="M225.5 100.111V79.8889C225.5 78.3 224.2 77 222.611 77H202.389C200.8 77 199.5 78.3 199.5 79.8889V100.111C199.5 101.7 200.8 103 202.389 103H222.611C224.2 103 225.5 101.7 225.5 100.111ZM207.444 92.1667L211.056 96.5144L216.111 90L222.611 98.6667H202.389L207.444 92.1667Z" fill="#2563EB" fill-opacity="0.3"/>
<rect width="117" height="80" transform="translate(154 148)" fill="#2563EB" fill-opacity="0.14"/>
<path d="M225.5 198.111V177.889C225.5 176.3 224.2 175 222.611 175H202.389C200.8 175 199.5 176.3 199.5 177.889V198.111C199.5 199.7 200.8 201 202.389 201H222.611C224.2 201 225.5 199.7 225.5 198.111ZM207.444 190.167L211.056 194.514L216.111 188L222.611 196.667H202.389L207.444 190.167Z" fill="#2563EB" fill-opacity="0.3"/>
<rect width="116" height="112" transform="translate(30 116)" fill="#2563EB" fill-opacity="0.14"/>
<path d="M101 182.111V161.889C101 160.3 99.7 159 98.1111 159H77.8889C76.3 159 75 160.3 75 161.889V182.111C75 183.7 76.3 185 77.8889 185H98.1111C99.7 185 101 183.7 101 182.111ZM82.9444 174.167L86.5556 178.514L91.6111 172L98.1111 180.667H77.8889L82.9444 174.167Z" fill="#2563EB" fill-opacity="0.3"/>
</svg>
