<svg width="311" height="268" viewBox="0 0 311 268" fill="none" xmlns="http://www.w3.org/2000/svg">
<rect x="0.5" y="0.5" width="310" height="267" fill="#F9F9F9" stroke="#EEEEEE"/>
<rect x="103" y="112" width="103" height="20" fill="#2563EB" fill-opacity="0.3"/>
<rect x="114" y="144" width="81" height="14" fill="#2563EB" fill-opacity="0.14"/>
<rect x="40" y="170" width="231" height="8" fill="#2563EB" fill-opacity="0.14"/>
<rect x="40" y="186" width="231" height="8" fill="#2563EB" fill-opacity="0.14"/>
<rect x="72" y="202" width="169" height="8" fill="#2563EB" fill-opacity="0.14"/>
<circle cx="155" cy="79" r="20" fill="#2563EB" fill-opacity="0.14"/>
<path d="M153.144 73.6276C153.93 71.6666 154.324 70.6861 155 70.6861C155.676 70.6861 156.07 71.6666 156.856 73.6276L156.893 73.7189C157.337 74.8268 157.56 75.3807 158.012 75.7174C158.465 76.0541 159.06 76.1073 160.249 76.2138L160.464 76.2331C162.409 76.4073 163.382 76.4944 163.59 77.1134C163.799 77.7324 163.076 78.3898 161.631 79.7044L161.149 80.1432C160.417 80.8087 160.052 81.1415 159.881 81.5776C159.849 81.659 159.823 81.7423 159.802 81.8271C159.69 82.2818 159.797 82.7645 160.011 83.73L160.078 84.0305C160.472 85.8049 160.668 86.692 160.325 87.0747C160.196 87.2177 160.029 87.3206 159.844 87.3712C159.348 87.5066 158.643 86.9326 157.234 85.7845C156.309 85.0306 155.847 84.6537 155.315 84.5689C155.107 84.5355 154.894 84.5355 154.685 84.5689C154.154 84.6537 153.691 85.0306 152.766 85.7845C151.357 86.9326 150.652 87.5066 150.156 87.3712C149.971 87.3206 149.804 87.2177 149.676 87.0747C149.332 86.692 149.529 85.8049 149.922 84.0305L149.989 83.73C150.203 82.7645 150.31 82.2818 150.198 81.8271C150.177 81.7423 150.151 81.659 150.119 81.5776C149.949 81.1415 149.583 80.8087 148.851 80.1432L148.369 79.7044C146.924 78.3898 146.202 77.7324 146.41 77.1134C146.618 76.4944 147.591 76.4073 149.537 76.2331L149.752 76.2138C150.94 76.1073 151.535 76.0541 151.988 75.7174C152.441 75.3807 152.663 74.8268 153.107 73.7189L153.144 73.6276Z" fill="#2563EB" fill-opacity="0.3"/>
<path d="M155 70.1861C155.634 70.1863 156.029 70.6645 156.321 71.1724C156.624 71.7005 156.934 72.4761 157.321 73.441L157.357 73.5328C157.583 74.0962 157.739 74.4839 157.892 74.775C158.04 75.0557 158.166 75.2081 158.311 75.316C158.456 75.4239 158.638 75.5006 158.95 75.5611C159.273 75.6238 159.689 75.6612 160.293 75.7154L160.508 75.7349C161.464 75.8205 162.238 75.8889 162.793 76.0201C163.335 76.148 163.871 76.3805 164.064 76.9537C164.257 77.5271 163.971 78.0368 163.617 78.4664C163.253 78.9068 162.677 79.4288 161.967 80.0748L161.485 80.5132C161.113 80.8516 160.857 81.0844 160.671 81.2857C160.492 81.4801 160.402 81.6201 160.347 81.7593C160.323 81.8203 160.303 81.8832 160.288 81.9468C160.252 82.0921 160.245 82.2585 160.28 82.5211C160.316 82.7928 160.391 83.1306 160.5 83.6216L160.566 83.9224C160.76 84.7973 160.916 85.4939 160.975 86.0181C161.03 86.5086 161.03 87.0378 160.697 87.4088C160.504 87.6232 160.253 87.7782 159.975 87.8541C159.494 87.985 159.021 87.7476 158.608 87.4781C158.166 87.1899 157.613 86.7385 156.918 86.1724C156.449 85.7895 156.123 85.5243 155.849 85.3414C155.583 85.1636 155.404 85.0897 155.237 85.063C155.08 85.038 154.92 85.038 154.763 85.063C154.596 85.0898 154.417 85.1636 154.151 85.3414C153.877 85.5243 153.551 85.7895 153.082 86.1724C152.387 86.7385 151.834 87.1899 151.392 87.4781C150.979 87.7476 150.506 87.9851 150.025 87.8541C149.747 87.7782 149.496 87.6232 149.303 87.4088C148.97 87.0378 148.971 86.5085 149.026 86.0181C149.085 85.4939 149.24 84.7972 149.434 83.9224L149.5 83.6216C149.609 83.1306 149.684 82.7928 149.72 82.5211C149.755 82.2585 149.748 82.0922 149.712 81.9468C149.697 81.8832 149.678 81.8203 149.654 81.7593C149.599 81.62 149.508 81.4802 149.329 81.2857C149.143 81.0844 148.887 80.8516 148.515 80.5132L148.033 80.0748C147.323 79.4289 146.748 78.9067 146.384 78.4664C146.03 78.0368 145.743 77.5272 145.936 76.9537C146.129 76.3805 146.665 76.148 147.207 76.0201C147.762 75.8889 148.536 75.8205 149.492 75.7349L149.707 75.7154C150.311 75.6613 150.727 75.6238 151.05 75.5611C151.362 75.5006 151.545 75.4239 151.69 75.316C151.835 75.2081 151.96 75.0554 152.108 74.775C152.261 74.4839 152.417 74.0962 152.643 73.5328L152.68 73.441C153.067 72.4762 153.376 71.7004 153.679 71.1724C153.971 70.6644 154.367 70.1861 155 70.1861Z" stroke="#2563EB" stroke-opacity="0.3"/>
</svg>
