<svg width="311" height="268" viewBox="0 0 311 268" fill="none" xmlns="http://www.w3.org/2000/svg">
<rect x="0.5" y="0.5" width="310" height="267" fill="#F9F9F9" stroke="#EEEEEE"/>
<rect width="228" height="154" transform="translate(42 57)" fill="#2563EB" fill-opacity="0.14"/>
<g clip-path="url(#clip0_2597_2735)">
<path d="M132 130.48C132 120.826 132 115.998 134.999 112.999C137.998 110 142.826 110 152.48 110H159.52C169.174 110 174.002 110 177.001 112.999C180 115.998 180 120.826 180 130.48V137.52C180 147.174 180 152.002 177.001 155.001C174.002 158 169.174 158 159.52 158H152.48C142.826 158 137.998 158 134.999 155.001C132 152.002 132 147.174 132 137.52V130.48Z" stroke="url(#paint0_linear_2597_2735)" stroke-opacity="0.6" stroke-width="3.84"/>
<circle cx="168" cy="122" r="4" fill="url(#paint1_linear_2597_2735)" fill-opacity="0.6"/>
<circle cx="156" cy="134" r="8.74667" stroke="url(#paint2_linear_2597_2735)" stroke-opacity="0.6" stroke-width="3.84"/>
</g>
<defs>
<linearGradient id="paint0_linear_2597_2735" x1="156" y1="110" x2="156" y2="158" gradientUnits="userSpaceOnUse">
<stop stop-color="#2563EB"/>
</linearGradient>
<linearGradient id="paint1_linear_2597_2735" x1="168" y1="118" x2="168" y2="126" gradientUnits="userSpaceOnUse">
<stop stop-color="#2563EB"/>
</linearGradient>
<linearGradient id="paint2_linear_2597_2735" x1="156" y1="123.333" x2="156" y2="144.666" gradientUnits="userSpaceOnUse">
<stop stop-color="#2563EB"/>
</linearGradient>
<clipPath id="clip0_2597_2735">
<rect width="64" height="64" fill="white" transform="translate(124 102)"/>
</clipPath>
</defs>
</svg>
