<svg width="311" height="268" viewBox="0 0 311 268" fill="none" xmlns="http://www.w3.org/2000/svg">
<rect x="0.5" y="0.5" width="310" height="267" fill="#F9F9F9" stroke="#EEEEEE"/>
<rect x="40" y="46" width="231" height="177" fill="#2563EB" fill-opacity="0.14"/>
<rect x="39.5" y="45.5" width="232" height="178" stroke="#2563EB" stroke-opacity="0.14"/>
<rect x="60" y="86" width="191" height="97" fill="white"/>
<rect x="115" y="122" width="80" height="10" fill="#2563EB" fill-opacity="0.3"/>
<rect x="101" y="140" width="109" height="3" fill="#2563EB" fill-opacity="0.14"/>
<rect x="120" y="146" width="71" height="3" fill="#2563EB" fill-opacity="0.14"/>
<circle cx="156" cy="105" r="10" fill="#2563EB" fill-opacity="0.14"/>
<path d="M155.072 102.314C155.465 101.333 155.662 100.843 156 100.843C156.338 100.843 156.535 101.333 156.928 102.314L156.946 102.359C157.169 102.913 157.28 103.19 157.506 103.359C157.733 103.527 158.03 103.554 158.624 103.607L158.732 103.616C159.705 103.704 160.191 103.747 160.295 104.057C160.399 104.366 160.038 104.695 159.316 105.352L159.074 105.572C158.709 105.904 158.526 106.071 158.441 106.289C158.425 106.329 158.411 106.371 158.401 106.414C158.345 106.641 158.398 106.882 158.506 107.365L158.539 107.515C158.736 108.402 158.834 108.846 158.662 109.037C158.598 109.109 158.515 109.16 158.422 109.186C158.174 109.253 157.822 108.966 157.117 108.392C156.655 108.015 156.423 107.827 156.158 107.784C156.053 107.768 155.947 107.768 155.842 107.784C155.577 107.827 155.346 108.015 154.883 108.392C154.178 108.966 153.826 109.253 153.578 109.186C153.485 109.16 153.402 109.109 153.338 109.037C153.166 108.846 153.264 108.402 153.461 107.515L153.495 107.365C153.602 106.882 153.655 106.641 153.599 106.414C153.589 106.371 153.575 106.329 153.56 106.289C153.474 106.071 153.291 105.904 152.926 105.572L152.685 105.352C151.962 104.695 151.601 104.366 151.705 104.057C151.809 103.747 152.295 103.704 153.268 103.616L153.376 103.607C153.97 103.554 154.267 103.527 154.494 103.359C154.72 103.19 154.831 102.913 155.054 102.359L155.072 102.314Z" fill="#2563EB" fill-opacity="0.3"/>
<path d="M156 100.343C156.464 100.343 156.726 100.699 156.877 100.962C157.039 101.245 157.202 101.653 157.392 102.127L157.411 102.173C157.526 102.46 157.599 102.639 157.668 102.771C157.731 102.892 157.773 102.934 157.804 102.957C157.836 102.981 157.888 103.009 158.022 103.035C158.168 103.064 158.361 103.081 158.669 103.109L158.776 103.118C159.246 103.16 159.654 103.196 159.954 103.267C160.204 103.326 160.533 103.444 160.706 103.753L160.769 103.898L160.805 104.051C160.855 104.402 160.664 104.694 160.501 104.892C160.305 105.129 160.001 105.405 159.652 105.722L159.411 105.942C159.222 106.114 159.103 106.222 159.019 106.313C158.942 106.397 158.918 106.441 158.906 106.471C158.898 106.491 158.892 106.512 158.886 106.533C158.879 106.565 158.872 106.614 158.887 106.728C158.904 106.85 158.939 107.007 158.994 107.257L159.027 107.406C159.123 107.838 159.205 108.202 159.236 108.481C159.264 108.725 159.281 109.096 159.034 109.371C158.906 109.514 158.739 109.618 158.553 109.668C158.197 109.766 157.874 109.583 157.668 109.448C157.433 109.295 157.144 109.059 156.802 108.78C156.563 108.585 156.411 108.462 156.286 108.378C156.169 108.3 156.113 108.284 156.079 108.279C156.027 108.27 155.974 108.27 155.922 108.279C155.887 108.284 155.832 108.3 155.715 108.378C155.59 108.462 155.437 108.585 155.199 108.78C154.856 109.059 154.568 109.295 154.333 109.448C154.126 109.583 153.803 109.766 153.446 109.668C153.261 109.618 153.094 109.514 152.966 109.371C152.718 109.096 152.737 108.725 152.764 108.481C152.796 108.202 152.878 107.838 152.973 107.406L153.007 107.257C153.062 107.007 153.096 106.85 153.112 106.728C153.127 106.615 153.122 106.565 153.114 106.533C153.109 106.512 153.101 106.491 153.094 106.471C153.082 106.441 153.058 106.397 152.98 106.313C152.896 106.222 152.778 106.113 152.59 105.942L152.348 105.722C152 105.405 151.695 105.129 151.499 104.892C151.312 104.665 151.091 104.316 151.231 103.898L151.295 103.753C151.467 103.444 151.795 103.326 152.046 103.267C152.345 103.196 152.754 103.16 153.223 103.118L153.331 103.109C153.638 103.081 153.831 103.064 153.977 103.035C154.112 103.009 154.164 102.981 154.196 102.957C154.228 102.933 154.269 102.892 154.333 102.771C154.402 102.639 154.475 102.459 154.59 102.173L154.608 102.127C154.798 101.653 154.961 101.245 155.123 100.962C155.274 100.699 155.536 100.343 156 100.343Z" stroke="#2563EB" stroke-opacity="0.3"/>
<rect x="126" y="159" width="57" height="15" rx="4" fill="#2563EB" fill-opacity="0.3"/>
<path d="M240.5 96.5L235.5 101.5" stroke="#2563EB" stroke-opacity="0.3" stroke-linecap="round" stroke-linejoin="round"/>
<path d="M235.5 96.5L240.5 101.5" stroke="#2563EB" stroke-opacity="0.3" stroke-linecap="round" stroke-linejoin="round"/>
</svg>
