<svg width="311" height="268" viewBox="0 0 311 268" fill="none" xmlns="http://www.w3.org/2000/svg">
<rect x="0.5" y="0.5" width="310" height="267" fill="#F9F9F9" stroke="#EEEEEE"/>
<rect x="49.5" y="48.5" width="212" height="170" stroke="#2563EB" stroke-opacity="0.3"/>
<rect width="175" height="48" transform="translate(68 67)" fill="#2563EB" fill-opacity="0.14"/>
<path d="M160.5 94.8889V87.1111C160.5 86.5 160 86 159.389 86H151.611C151 86 150.5 86.5 150.5 87.1111V94.8889C150.5 95.5 151 96 151.611 96H159.389C160 96 160.5 95.5 160.5 94.8889ZM153.556 91.8333L154.944 93.5056L156.889 91L159.389 94.3333H151.611L153.556 91.8333Z" fill="#2563EB" fill-opacity="0.3"/>
<rect x="89" y="122" width="133" height="15" fill="#2563EB" fill-opacity="0.3"/>
<rect x="68" y="150" width="175" height="6" fill="#2563EB" fill-opacity="0.14"/>
<rect x="110" y="159" width="91" height="6" fill="#2563EB" fill-opacity="0.14"/>
<rect x="119.5" y="183" width="72" height="12" rx="2" fill="#2563EB" fill-opacity="0.3"/>
<path d="M285 134L285.707 133.293L286.414 134L285.707 134.707L285 134ZM270 135C269.448 135 269 134.552 269 134C269 133.448 269.448 133 270 133V134V135ZM279 128L279.707 127.293L285.707 133.293L285 134L284.293 134.707L278.293 128.707L279 128ZM285 134L285.707 134.707L279.707 140.707L279 140L278.293 139.293L284.293 133.293L285 134ZM285 134V135H270V134V133H285V134Z" fill="#2563EB" fill-opacity="0.3"/>
<path d="M26 134L25.2929 133.293L24.5858 134L25.2929 134.707L26 134ZM41 135C41.5523 135 42 134.552 42 134C42 133.448 41.5523 133 41 133V134V135ZM32 128L31.2929 127.293L25.2929 133.293L26 134L26.7071 134.707L32.7071 128.707L32 128ZM26 134L25.2929 134.707L31.2929 140.707L32 140L32.7071 139.293L26.7071 133.293L26 134ZM26 134V135H41V134V133H26V134Z" fill="#2563EB" fill-opacity="0.3"/>
</svg>
