<svg width="311" height="268" viewBox="0 0 311 268" fill="none" xmlns="http://www.w3.org/2000/svg">
<rect x="0.5" y="0.5" width="310" height="267" fill="#F9F9F9" stroke="#EEEEEE"/>
<rect x="40.5" y="40.5" width="109" height="187" stroke="#2563EB" stroke-opacity="0.3"/>
<rect x="161.5" y="40.5" width="109" height="187" stroke="#2563EB" stroke-opacity="0.3"/>
<rect width="38" height="38" transform="translate(76 54)" fill="#2563EB" fill-opacity="0.14"/>
<path d="M105 80.7778V65.2222C105 64 104 63 102.778 63H87.2222C86 63 85 64 85 65.2222V80.7778C85 82 86 83 87.2222 83H102.778C104 83 105 82 105 80.7778ZM91.1111 74.6667L93.8889 78.0111L97.7778 73L102.778 79.6667H87.2222L91.1111 74.6667Z" fill="#2563EB" fill-opacity="0.3"/>
<rect width="38" height="38" transform="translate(197 54)" fill="#2563EB" fill-opacity="0.14"/>
<path d="M226 80.7778V65.2222C226 64 225 63 223.778 63H208.222C207 63 206 64 206 65.2222V80.7778C206 82 207 83 208.222 83H223.778C225 83 226 82 226 80.7778ZM212.111 74.6667L214.889 78.0111L218.778 73L223.778 79.6667H208.222L212.111 74.6667Z" fill="#2563EB" fill-opacity="0.3"/>
<rect x="78" y="100" width="33" height="3" fill="#2563EB" fill-opacity="0.3"/>
<rect x="199" y="100" width="33" height="3" fill="#2563EB" fill-opacity="0.3"/>
<path d="M90.3828 116.805V119.141H89.1797V116.805H90.3828ZM90.2344 129.562V131.656H89.0391V129.562H90.2344ZM91.4141 127.039C91.4141 126.737 91.3516 126.474 91.2266 126.25C91.1068 126.021 90.9089 125.815 90.6328 125.633C90.3568 125.445 89.987 125.271 89.5234 125.109C88.8568 124.875 88.2734 124.612 87.7734 124.32C87.2786 124.023 86.8932 123.659 86.6172 123.227C86.3464 122.789 86.2109 122.245 86.2109 121.594C86.2109 120.953 86.3568 120.398 86.6484 119.93C86.9453 119.461 87.3568 119.099 87.8828 118.844C88.4089 118.589 89.0234 118.461 89.7266 118.461C90.2682 118.461 90.7552 118.542 91.1875 118.703C91.625 118.865 91.9974 119.102 92.3047 119.414C92.612 119.727 92.8464 120.112 93.0078 120.57C93.1745 121.023 93.2578 121.544 93.2578 122.133H91.3828C91.3828 121.799 91.3438 121.503 91.2656 121.242C91.1927 120.977 91.0833 120.753 90.9375 120.57C90.7917 120.383 90.6146 120.24 90.4062 120.141C90.2031 120.042 89.9714 119.992 89.7109 119.992C89.3411 119.992 89.0365 120.062 88.7969 120.203C88.5573 120.339 88.3802 120.526 88.2656 120.766C88.1562 121.005 88.1016 121.279 88.1016 121.586C88.1016 121.883 88.1589 122.143 88.2734 122.367C88.388 122.591 88.5833 122.794 88.8594 122.977C89.1406 123.154 89.526 123.333 90.0156 123.516C90.6875 123.755 91.2682 124.023 91.7578 124.32C92.2526 124.612 92.6328 124.974 92.8984 125.406C93.1693 125.833 93.3047 126.372 93.3047 127.023C93.3047 127.695 93.1484 128.266 92.8359 128.734C92.5286 129.203 92.0964 129.56 91.5391 129.805C90.987 130.044 90.3438 130.164 89.6094 130.164C89.1458 130.164 88.6849 130.104 88.2266 129.984C87.7734 129.859 87.362 129.656 86.9922 129.375C86.6224 129.094 86.3281 128.721 86.1094 128.258C85.8906 127.789 85.7812 127.216 85.7812 126.539H87.6719C87.6719 126.945 87.7266 127.284 87.8359 127.555C87.9453 127.826 88.0938 128.039 88.2812 128.195C88.4688 128.352 88.6771 128.464 88.9062 128.531C89.1406 128.599 89.375 128.633 89.6094 128.633C90 128.633 90.3281 128.568 90.5938 128.438C90.8646 128.302 91.0677 128.115 91.2031 127.875C91.3438 127.63 91.4141 127.352 91.4141 127.039ZM99.4766 116.805V119.141H98.2734V116.805H99.4766ZM99.3281 129.562V131.656H98.1328V129.562H99.3281ZM100.508 127.039C100.508 126.737 100.445 126.474 100.32 126.25C100.201 126.021 100.003 125.815 99.7266 125.633C99.4505 125.445 99.0807 125.271 98.6172 125.109C97.9505 124.875 97.3672 124.612 96.8672 124.32C96.3724 124.023 95.987 123.659 95.7109 123.227C95.4401 122.789 95.3047 122.245 95.3047 121.594C95.3047 120.953 95.4505 120.398 95.7422 119.93C96.0391 119.461 96.4505 119.099 96.9766 118.844C97.5026 118.589 98.1172 118.461 98.8203 118.461C99.362 118.461 99.849 118.542 100.281 118.703C100.719 118.865 101.091 119.102 101.398 119.414C101.706 119.727 101.94 120.112 102.102 120.57C102.268 121.023 102.352 121.544 102.352 122.133H100.477C100.477 121.799 100.438 121.503 100.359 121.242C100.286 120.977 100.177 120.753 100.031 120.57C99.8854 120.383 99.7083 120.24 99.5 120.141C99.2969 120.042 99.0651 119.992 98.8047 119.992C98.4349 119.992 98.1302 120.062 97.8906 120.203C97.651 120.339 97.474 120.526 97.3594 120.766C97.25 121.005 97.1953 121.279 97.1953 121.586C97.1953 121.883 97.2526 122.143 97.3672 122.367C97.4818 122.591 97.6771 122.794 97.9531 122.977C98.2344 123.154 98.6198 123.333 99.1094 123.516C99.7812 123.755 100.362 124.023 100.852 124.32C101.346 124.612 101.727 124.974 101.992 125.406C102.263 125.833 102.398 126.372 102.398 127.023C102.398 127.695 102.242 128.266 101.93 128.734C101.622 129.203 101.19 129.56 100.633 129.805C100.081 130.044 99.4375 130.164 98.7031 130.164C98.2396 130.164 97.7786 130.104 97.3203 129.984C96.8672 129.859 96.4557 129.656 96.0859 129.375C95.7161 129.094 95.4219 128.721 95.2031 128.258C94.9844 127.789 94.875 127.216 94.875 126.539H96.7656C96.7656 126.945 96.8203 127.284 96.9297 127.555C97.0391 127.826 97.1875 128.039 97.375 128.195C97.5625 128.352 97.7708 128.464 98 128.531C98.2344 128.599 98.4688 128.633 98.7031 128.633C99.0938 128.633 99.4219 128.568 99.6875 128.438C99.9583 128.302 100.161 128.115 100.297 127.875C100.438 127.63 100.508 127.352 100.508 127.039Z" fill="#2563EB" fill-opacity="0.3"/>
<path d="M211.383 116.805V119.141H210.18V116.805H211.383ZM211.234 129.562V131.656H210.039V129.562H211.234ZM212.414 127.039C212.414 126.737 212.352 126.474 212.227 126.25C212.107 126.021 211.909 125.815 211.633 125.633C211.357 125.445 210.987 125.271 210.523 125.109C209.857 124.875 209.273 124.612 208.773 124.32C208.279 124.023 207.893 123.659 207.617 123.227C207.346 122.789 207.211 122.245 207.211 121.594C207.211 120.953 207.357 120.398 207.648 119.93C207.945 119.461 208.357 119.099 208.883 118.844C209.409 118.589 210.023 118.461 210.727 118.461C211.268 118.461 211.755 118.542 212.188 118.703C212.625 118.865 212.997 119.102 213.305 119.414C213.612 119.727 213.846 120.112 214.008 120.57C214.174 121.023 214.258 121.544 214.258 122.133H212.383C212.383 121.799 212.344 121.503 212.266 121.242C212.193 120.977 212.083 120.753 211.938 120.57C211.792 120.383 211.615 120.24 211.406 120.141C211.203 120.042 210.971 119.992 210.711 119.992C210.341 119.992 210.036 120.062 209.797 120.203C209.557 120.339 209.38 120.526 209.266 120.766C209.156 121.005 209.102 121.279 209.102 121.586C209.102 121.883 209.159 122.143 209.273 122.367C209.388 122.591 209.583 122.794 209.859 122.977C210.141 123.154 210.526 123.333 211.016 123.516C211.688 123.755 212.268 124.023 212.758 124.32C213.253 124.612 213.633 124.974 213.898 125.406C214.169 125.833 214.305 126.372 214.305 127.023C214.305 127.695 214.148 128.266 213.836 128.734C213.529 129.203 213.096 129.56 212.539 129.805C211.987 130.044 211.344 130.164 210.609 130.164C210.146 130.164 209.685 130.104 209.227 129.984C208.773 129.859 208.362 129.656 207.992 129.375C207.622 129.094 207.328 128.721 207.109 128.258C206.891 127.789 206.781 127.216 206.781 126.539H208.672C208.672 126.945 208.727 127.284 208.836 127.555C208.945 127.826 209.094 128.039 209.281 128.195C209.469 128.352 209.677 128.464 209.906 128.531C210.141 128.599 210.375 128.633 210.609 128.633C211 128.633 211.328 128.568 211.594 128.438C211.865 128.302 212.068 128.115 212.203 127.875C212.344 127.63 212.414 127.352 212.414 127.039ZM220.477 116.805V119.141H219.273V116.805H220.477ZM220.328 129.562V131.656H219.133V129.562H220.328ZM221.508 127.039C221.508 126.737 221.445 126.474 221.32 126.25C221.201 126.021 221.003 125.815 220.727 125.633C220.451 125.445 220.081 125.271 219.617 125.109C218.951 124.875 218.367 124.612 217.867 124.32C217.372 124.023 216.987 123.659 216.711 123.227C216.44 122.789 216.305 122.245 216.305 121.594C216.305 120.953 216.451 120.398 216.742 119.93C217.039 119.461 217.451 119.099 217.977 118.844C218.503 118.589 219.117 118.461 219.82 118.461C220.362 118.461 220.849 118.542 221.281 118.703C221.719 118.865 222.091 119.102 222.398 119.414C222.706 119.727 222.94 120.112 223.102 120.57C223.268 121.023 223.352 121.544 223.352 122.133H221.477C221.477 121.799 221.438 121.503 221.359 121.242C221.286 120.977 221.177 120.753 221.031 120.57C220.885 120.383 220.708 120.24 220.5 120.141C220.297 120.042 220.065 119.992 219.805 119.992C219.435 119.992 219.13 120.062 218.891 120.203C218.651 120.339 218.474 120.526 218.359 120.766C218.25 121.005 218.195 121.279 218.195 121.586C218.195 121.883 218.253 122.143 218.367 122.367C218.482 122.591 218.677 122.794 218.953 122.977C219.234 123.154 219.62 123.333 220.109 123.516C220.781 123.755 221.362 124.023 221.852 124.32C222.346 124.612 222.727 124.974 222.992 125.406C223.263 125.833 223.398 126.372 223.398 127.023C223.398 127.695 223.242 128.266 222.93 128.734C222.622 129.203 222.19 129.56 221.633 129.805C221.081 130.044 220.438 130.164 219.703 130.164C219.24 130.164 218.779 130.104 218.32 129.984C217.867 129.859 217.456 129.656 217.086 129.375C216.716 129.094 216.422 128.721 216.203 128.258C215.984 127.789 215.875 127.216 215.875 126.539H217.766C217.766 126.945 217.82 127.284 217.93 127.555C218.039 127.826 218.188 128.039 218.375 128.195C218.562 128.352 218.771 128.464 219 128.531C219.234 128.599 219.469 128.633 219.703 128.633C220.094 128.633 220.422 128.568 220.688 128.438C220.958 128.302 221.161 128.115 221.297 127.875C221.438 127.63 221.508 127.352 221.508 127.039Z" fill="#2563EB" fill-opacity="0.3"/>
<rect x="74" y="146" width="58" height="4" fill="#2563EB" fill-opacity="0.14"/>
<rect x="195" y="146" width="58" height="4" fill="#2563EB" fill-opacity="0.14"/>
<rect x="74" y="162" width="58" height="4" fill="#2563EB" fill-opacity="0.14"/>
<rect x="195" y="162" width="58" height="4" fill="#2563EB" fill-opacity="0.14"/>
<rect x="74" y="178" width="58" height="4" fill="#2563EB" fill-opacity="0.14"/>
<rect x="195" y="178" width="58" height="4" fill="#2563EB" fill-opacity="0.14"/>
<path d="M64 143.5C66.4853 143.5 68.5 145.515 68.5 148C68.5 150.485 66.4853 152.5 64 152.5C61.5147 152.5 59.5 150.485 59.5 148C59.5 145.515 61.5147 143.5 64 143.5ZM66.3203 146.116C66.1083 145.94 65.793 145.968 65.6162 146.18L63.4668 148.759L62.3535 147.646C62.1583 147.451 61.8417 147.451 61.6465 147.646C61.4512 147.842 61.4512 148.158 61.6465 148.354L63.5332 150.24L63.8838 149.82L66.3838 146.82C66.5605 146.608 66.5322 146.293 66.3203 146.116Z" fill="#2563EB" fill-opacity="0.3"/>
<path d="M185 143.5C187.485 143.5 189.5 145.515 189.5 148C189.5 150.485 187.485 152.5 185 152.5C182.515 152.5 180.5 150.485 180.5 148C180.5 145.515 182.515 143.5 185 143.5ZM187.32 146.116C187.108 145.94 186.793 145.968 186.616 146.18L184.467 148.759L183.354 147.646C183.158 147.451 182.842 147.451 182.646 147.646C182.451 147.842 182.451 148.158 182.646 148.354L184.533 150.24L184.884 149.82L187.384 146.82C187.56 146.608 187.532 146.293 187.32 146.116Z" fill="#2563EB" fill-opacity="0.3"/>
<path d="M64 159.5C66.4853 159.5 68.5 161.515 68.5 164C68.5 166.485 66.4853 168.5 64 168.5C61.5147 168.5 59.5 166.485 59.5 164C59.5 161.515 61.5147 159.5 64 159.5ZM66.3203 162.116C66.1083 161.94 65.793 161.968 65.6162 162.18L63.4668 164.759L62.3535 163.646C62.1583 163.451 61.8417 163.451 61.6465 163.646C61.4512 163.842 61.4512 164.158 61.6465 164.354L63.5332 166.24L63.8838 165.82L66.3838 162.82C66.5605 162.608 66.5322 162.293 66.3203 162.116Z" fill="#2563EB" fill-opacity="0.3"/>
<path d="M185 159.5C187.485 159.5 189.5 161.515 189.5 164C189.5 166.485 187.485 168.5 185 168.5C182.515 168.5 180.5 166.485 180.5 164C180.5 161.515 182.515 159.5 185 159.5ZM187.32 162.116C187.108 161.94 186.793 161.968 186.616 162.18L184.467 164.759L183.354 163.646C183.158 163.451 182.842 163.451 182.646 163.646C182.451 163.842 182.451 164.158 182.646 164.354L184.533 166.24L184.884 165.82L187.384 162.82C187.56 162.608 187.532 162.293 187.32 162.116Z" fill="#2563EB" fill-opacity="0.3"/>
<path d="M64 175.5C66.4853 175.5 68.5 177.515 68.5 180C68.5 182.485 66.4853 184.5 64 184.5C61.5147 184.5 59.5 182.485 59.5 180C59.5 177.515 61.5147 175.5 64 175.5ZM66.3203 178.116C66.1083 177.94 65.793 177.968 65.6162 178.18L63.4668 180.759L62.3535 179.646C62.1583 179.451 61.8417 179.451 61.6465 179.646C61.4512 179.842 61.4512 180.158 61.6465 180.354L63.5332 182.24L63.8838 181.82L66.3838 178.82C66.5605 178.608 66.5322 178.293 66.3203 178.116Z" fill="#2563EB" fill-opacity="0.3"/>
<path d="M185 175.5C187.485 175.5 189.5 177.515 189.5 180C189.5 182.485 187.485 184.5 185 184.5C182.515 184.5 180.5 182.485 180.5 180C180.5 177.515 182.515 175.5 185 175.5ZM187.32 178.116C187.108 177.94 186.793 177.968 186.616 178.18L184.467 180.759L183.354 179.646C183.158 179.451 182.842 179.451 182.646 179.646C182.451 179.842 182.451 180.158 182.646 180.354L184.533 182.24L184.884 181.82L187.384 178.82C187.56 178.608 187.532 178.293 187.32 178.116Z" fill="#2563EB" fill-opacity="0.3"/>
<rect x="76" y="202" width="38" height="12" rx="2" fill="#2563EB" fill-opacity="0.3"/>
<rect x="84" y="207.5" width="22" height="1" fill="#E7DCF1"/>
<rect x="197" y="202" width="38" height="12" rx="2" fill="#2563EB" fill-opacity="0.3"/>
<rect x="205" y="207.5" width="22" height="1" fill="#E7DCF1"/>
</svg>
