<svg width="311" height="268" viewBox="0 0 311 268" fill="none" xmlns="http://www.w3.org/2000/svg">
<rect x="0.5" y="0.5" width="310" height="267" fill="#F9F9F9" stroke="#EEEEEE"/>
<rect width="38" height="38" transform="translate(40 49)" fill="#2563EB" fill-opacity="0.14"/>
<path d="M69 75.7778V60.2222C69 59 68 58 66.7778 58H51.2222C50 58 49 59 49 60.2222V75.7778C49 77 50 78 51.2222 78H66.7778C68 78 69 77 69 75.7778ZM55.1111 69.6667L57.8889 73.0111L61.7778 68L66.7778 74.6667H51.2222L55.1111 69.6667Z" fill="#2563EB" fill-opacity="0.3"/>
<rect x="84" y="49" width="80" height="9" fill="#2563EB" fill-opacity="0.3"/>
<rect x="84" y="62" width="187" height="4" fill="#2563EB" fill-opacity="0.14"/>
<rect x="84" y="68" width="187" height="4" fill="#2563EB" fill-opacity="0.14"/>
<rect x="84" y="74" width="128" height="4" fill="#2563EB" fill-opacity="0.14"/>
<path d="M261.037 47.1035V48.8555H260.135V47.1035H261.037ZM260.926 56.6719V58.2422H260.029V56.6719H260.926ZM261.811 54.7793C261.811 54.5527 261.764 54.3555 261.67 54.1875C261.58 54.0156 261.432 53.8613 261.225 53.7246C261.018 53.584 260.74 53.4531 260.393 53.332C259.893 53.1562 259.455 52.959 259.08 52.7402C258.709 52.5176 258.42 52.2441 258.213 51.9199C258.01 51.5918 257.908 51.1836 257.908 50.6953C257.908 50.2148 258.018 49.7988 258.236 49.4473C258.459 49.0957 258.768 48.8242 259.162 48.6328C259.557 48.4414 260.018 48.3457 260.545 48.3457C260.951 48.3457 261.316 48.4062 261.641 48.5273C261.969 48.6484 262.248 48.8262 262.479 49.0605C262.709 49.2949 262.885 49.584 263.006 49.9277C263.131 50.2676 263.193 50.6582 263.193 51.0996H261.787C261.787 50.8496 261.758 50.627 261.699 50.4316C261.645 50.2324 261.562 50.0645 261.453 49.9277C261.344 49.7871 261.211 49.6797 261.055 49.6055C260.902 49.5312 260.729 49.4941 260.533 49.4941C260.256 49.4941 260.027 49.5469 259.848 49.6523C259.668 49.7539 259.535 49.8945 259.449 50.0742C259.367 50.2539 259.326 50.459 259.326 50.6895C259.326 50.9121 259.369 51.1074 259.455 51.2754C259.541 51.4434 259.688 51.5957 259.895 51.7324C260.105 51.8652 260.395 52 260.762 52.1367C261.266 52.3164 261.701 52.5176 262.068 52.7402C262.439 52.959 262.725 53.2305 262.924 53.5547C263.127 53.875 263.229 54.2793 263.229 54.7676C263.229 55.2715 263.111 55.6992 262.877 56.0508C262.646 56.4023 262.322 56.6699 261.904 56.8535C261.49 57.0332 261.008 57.123 260.457 57.123C260.109 57.123 259.764 57.0781 259.42 56.9883C259.08 56.8945 258.771 56.7422 258.494 56.5312C258.217 56.3203 257.996 56.041 257.832 55.6934C257.668 55.3418 257.586 54.9121 257.586 54.4043H259.004C259.004 54.709 259.045 54.9629 259.127 55.166C259.209 55.3691 259.32 55.5293 259.461 55.6465C259.602 55.7637 259.758 55.8477 259.93 55.8984C260.105 55.9492 260.281 55.9746 260.457 55.9746C260.75 55.9746 260.996 55.9258 261.195 55.8281C261.398 55.7266 261.551 55.5859 261.652 55.4062C261.758 55.2227 261.811 55.0137 261.811 54.7793ZM267.857 47.1035V48.8555H266.955V47.1035H267.857ZM267.746 56.6719V58.2422H266.85V56.6719H267.746ZM268.631 54.7793C268.631 54.5527 268.584 54.3555 268.49 54.1875C268.4 54.0156 268.252 53.8613 268.045 53.7246C267.838 53.584 267.561 53.4531 267.213 53.332C266.713 53.1562 266.275 52.959 265.9 52.7402C265.529 52.5176 265.24 52.2441 265.033 51.9199C264.83 51.5918 264.729 51.1836 264.729 50.6953C264.729 50.2148 264.838 49.7988 265.057 49.4473C265.279 49.0957 265.588 48.8242 265.982 48.6328C266.377 48.4414 266.838 48.3457 267.365 48.3457C267.771 48.3457 268.137 48.4062 268.461 48.5273C268.789 48.6484 269.068 48.8262 269.299 49.0605C269.529 49.2949 269.705 49.584 269.826 49.9277C269.951 50.2676 270.014 50.6582 270.014 51.0996H268.607C268.607 50.8496 268.578 50.627 268.52 50.4316C268.465 50.2324 268.383 50.0645 268.273 49.9277C268.164 49.7871 268.031 49.6797 267.875 49.6055C267.723 49.5312 267.549 49.4941 267.354 49.4941C267.076 49.4941 266.848 49.5469 266.668 49.6523C266.488 49.7539 266.355 49.8945 266.27 50.0742C266.188 50.2539 266.146 50.459 266.146 50.6895C266.146 50.9121 266.189 51.1074 266.275 51.2754C266.361 51.4434 266.508 51.5957 266.715 51.7324C266.926 51.8652 267.215 52 267.582 52.1367C268.086 52.3164 268.521 52.5176 268.889 52.7402C269.26 52.959 269.545 53.2305 269.744 53.5547C269.947 53.875 270.049 54.2793 270.049 54.7676C270.049 55.2715 269.932 55.6992 269.697 56.0508C269.467 56.4023 269.143 56.6699 268.725 56.8535C268.311 57.0332 267.828 57.123 267.277 57.123C266.93 57.123 266.584 57.0781 266.24 56.9883C265.9 56.8945 265.592 56.7422 265.314 56.5312C265.037 56.3203 264.816 56.041 264.652 55.6934C264.488 55.3418 264.406 54.9121 264.406 54.4043H265.824C265.824 54.709 265.865 54.9629 265.947 55.166C266.029 55.3691 266.141 55.5293 266.281 55.6465C266.422 55.7637 266.578 55.8477 266.75 55.8984C266.926 55.9492 267.102 55.9746 267.277 55.9746C267.57 55.9746 267.816 55.9258 268.016 55.8281C268.219 55.7266 268.371 55.5859 268.473 55.4062C268.578 55.2227 268.631 55.0137 268.631 54.7793Z" fill="#2563EB" fill-opacity="0.3"/>
<rect width="38" height="38" transform="translate(40 115)" fill="#2563EB" fill-opacity="0.14"/>
<path d="M69 141.778V126.222C69 125 68 124 66.7778 124H51.2222C50 124 49 125 49 126.222V141.778C49 143 50 144 51.2222 144H66.7778C68 144 69 143 69 141.778ZM55.1111 135.667L57.8889 139.011L61.7778 134L66.7778 140.667H51.2222L55.1111 135.667Z" fill="#2563EB" fill-opacity="0.3"/>
<rect x="84" y="115" width="80" height="9" fill="#2563EB" fill-opacity="0.3"/>
<rect x="84" y="128" width="187" height="4" fill="#2563EB" fill-opacity="0.14"/>
<rect x="84" y="134" width="187" height="4" fill="#2563EB" fill-opacity="0.14"/>
<rect x="84" y="140" width="128" height="4" fill="#2563EB" fill-opacity="0.14"/>
<path d="M261.037 113.104V114.855H260.135V113.104H261.037ZM260.926 122.672V124.242H260.029V122.672H260.926ZM261.811 120.779C261.811 120.553 261.764 120.355 261.67 120.188C261.58 120.016 261.432 119.861 261.225 119.725C261.018 119.584 260.74 119.453 260.393 119.332C259.893 119.156 259.455 118.959 259.08 118.74C258.709 118.518 258.42 118.244 258.213 117.92C258.01 117.592 257.908 117.184 257.908 116.695C257.908 116.215 258.018 115.799 258.236 115.447C258.459 115.096 258.768 114.824 259.162 114.633C259.557 114.441 260.018 114.346 260.545 114.346C260.951 114.346 261.316 114.406 261.641 114.527C261.969 114.648 262.248 114.826 262.479 115.061C262.709 115.295 262.885 115.584 263.006 115.928C263.131 116.268 263.193 116.658 263.193 117.1H261.787C261.787 116.85 261.758 116.627 261.699 116.432C261.645 116.232 261.562 116.064 261.453 115.928C261.344 115.787 261.211 115.68 261.055 115.605C260.902 115.531 260.729 115.494 260.533 115.494C260.256 115.494 260.027 115.547 259.848 115.652C259.668 115.754 259.535 115.895 259.449 116.074C259.367 116.254 259.326 116.459 259.326 116.689C259.326 116.912 259.369 117.107 259.455 117.275C259.541 117.443 259.688 117.596 259.895 117.732C260.105 117.865 260.395 118 260.762 118.137C261.266 118.316 261.701 118.518 262.068 118.74C262.439 118.959 262.725 119.23 262.924 119.555C263.127 119.875 263.229 120.279 263.229 120.768C263.229 121.271 263.111 121.699 262.877 122.051C262.646 122.402 262.322 122.67 261.904 122.854C261.49 123.033 261.008 123.123 260.457 123.123C260.109 123.123 259.764 123.078 259.42 122.988C259.08 122.895 258.771 122.742 258.494 122.531C258.217 122.32 257.996 122.041 257.832 121.693C257.668 121.342 257.586 120.912 257.586 120.404H259.004C259.004 120.709 259.045 120.963 259.127 121.166C259.209 121.369 259.32 121.529 259.461 121.646C259.602 121.764 259.758 121.848 259.93 121.898C260.105 121.949 260.281 121.975 260.457 121.975C260.75 121.975 260.996 121.926 261.195 121.828C261.398 121.727 261.551 121.586 261.652 121.406C261.758 121.223 261.811 121.014 261.811 120.779ZM267.857 113.104V114.855H266.955V113.104H267.857ZM267.746 122.672V124.242H266.85V122.672H267.746ZM268.631 120.779C268.631 120.553 268.584 120.355 268.49 120.188C268.4 120.016 268.252 119.861 268.045 119.725C267.838 119.584 267.561 119.453 267.213 119.332C266.713 119.156 266.275 118.959 265.9 118.74C265.529 118.518 265.24 118.244 265.033 117.92C264.83 117.592 264.729 117.184 264.729 116.695C264.729 116.215 264.838 115.799 265.057 115.447C265.279 115.096 265.588 114.824 265.982 114.633C266.377 114.441 266.838 114.346 267.365 114.346C267.771 114.346 268.137 114.406 268.461 114.527C268.789 114.648 269.068 114.826 269.299 115.061C269.529 115.295 269.705 115.584 269.826 115.928C269.951 116.268 270.014 116.658 270.014 117.1H268.607C268.607 116.85 268.578 116.627 268.52 116.432C268.465 116.232 268.383 116.064 268.273 115.928C268.164 115.787 268.031 115.68 267.875 115.605C267.723 115.531 267.549 115.494 267.354 115.494C267.076 115.494 266.848 115.547 266.668 115.652C266.488 115.754 266.355 115.895 266.27 116.074C266.188 116.254 266.146 116.459 266.146 116.689C266.146 116.912 266.189 117.107 266.275 117.275C266.361 117.443 266.508 117.596 266.715 117.732C266.926 117.865 267.215 118 267.582 118.137C268.086 118.316 268.521 118.518 268.889 118.74C269.26 118.959 269.545 119.23 269.744 119.555C269.947 119.875 270.049 120.279 270.049 120.768C270.049 121.271 269.932 121.699 269.697 122.051C269.467 122.402 269.143 122.67 268.725 122.854C268.311 123.033 267.828 123.123 267.277 123.123C266.93 123.123 266.584 123.078 266.24 122.988C265.9 122.895 265.592 122.742 265.314 122.531C265.037 122.32 264.816 122.041 264.652 121.693C264.488 121.342 264.406 120.912 264.406 120.404H265.824C265.824 120.709 265.865 120.963 265.947 121.166C266.029 121.369 266.141 121.529 266.281 121.646C266.422 121.764 266.578 121.848 266.75 121.898C266.926 121.949 267.102 121.975 267.277 121.975C267.57 121.975 267.816 121.926 268.016 121.828C268.219 121.727 268.371 121.586 268.473 121.406C268.578 121.223 268.631 121.014 268.631 120.779Z" fill="#2563EB" fill-opacity="0.3"/>
<rect width="38" height="38" transform="translate(40 181)" fill="#2563EB" fill-opacity="0.14"/>
<path d="M69 207.778V192.222C69 191 68 190 66.7778 190H51.2222C50 190 49 191 49 192.222V207.778C49 209 50 210 51.2222 210H66.7778C68 210 69 209 69 207.778ZM55.1111 201.667L57.8889 205.011L61.7778 200L66.7778 206.667H51.2222L55.1111 201.667Z" fill="#2563EB" fill-opacity="0.3"/>
<rect x="84" y="181" width="80" height="9" fill="#2563EB" fill-opacity="0.3"/>
<rect x="84" y="194" width="187" height="4" fill="#2563EB" fill-opacity="0.14"/>
<rect x="84" y="200" width="187" height="4" fill="#2563EB" fill-opacity="0.14"/>
<rect x="84" y="206" width="128" height="4" fill="#2563EB" fill-opacity="0.14"/>
<path d="M261.037 179.104V180.855H260.135V179.104H261.037ZM260.926 188.672V190.242H260.029V188.672H260.926ZM261.811 186.779C261.811 186.553 261.764 186.355 261.67 186.188C261.58 186.016 261.432 185.861 261.225 185.725C261.018 185.584 260.74 185.453 260.393 185.332C259.893 185.156 259.455 184.959 259.08 184.74C258.709 184.518 258.42 184.244 258.213 183.92C258.01 183.592 257.908 183.184 257.908 182.695C257.908 182.215 258.018 181.799 258.236 181.447C258.459 181.096 258.768 180.824 259.162 180.633C259.557 180.441 260.018 180.346 260.545 180.346C260.951 180.346 261.316 180.406 261.641 180.527C261.969 180.648 262.248 180.826 262.479 181.061C262.709 181.295 262.885 181.584 263.006 181.928C263.131 182.268 263.193 182.658 263.193 183.1H261.787C261.787 182.85 261.758 182.627 261.699 182.432C261.645 182.232 261.562 182.064 261.453 181.928C261.344 181.787 261.211 181.68 261.055 181.605C260.902 181.531 260.729 181.494 260.533 181.494C260.256 181.494 260.027 181.547 259.848 181.652C259.668 181.754 259.535 181.895 259.449 182.074C259.367 182.254 259.326 182.459 259.326 182.689C259.326 182.912 259.369 183.107 259.455 183.275C259.541 183.443 259.688 183.596 259.895 183.732C260.105 183.865 260.395 184 260.762 184.137C261.266 184.316 261.701 184.518 262.068 184.74C262.439 184.959 262.725 185.23 262.924 185.555C263.127 185.875 263.229 186.279 263.229 186.768C263.229 187.271 263.111 187.699 262.877 188.051C262.646 188.402 262.322 188.67 261.904 188.854C261.49 189.033 261.008 189.123 260.457 189.123C260.109 189.123 259.764 189.078 259.42 188.988C259.08 188.895 258.771 188.742 258.494 188.531C258.217 188.32 257.996 188.041 257.832 187.693C257.668 187.342 257.586 186.912 257.586 186.404H259.004C259.004 186.709 259.045 186.963 259.127 187.166C259.209 187.369 259.32 187.529 259.461 187.646C259.602 187.764 259.758 187.848 259.93 187.898C260.105 187.949 260.281 187.975 260.457 187.975C260.75 187.975 260.996 187.926 261.195 187.828C261.398 187.727 261.551 187.586 261.652 187.406C261.758 187.223 261.811 187.014 261.811 186.779ZM267.857 179.104V180.855H266.955V179.104H267.857ZM267.746 188.672V190.242H266.85V188.672H267.746ZM268.631 186.779C268.631 186.553 268.584 186.355 268.49 186.188C268.4 186.016 268.252 185.861 268.045 185.725C267.838 185.584 267.561 185.453 267.213 185.332C266.713 185.156 266.275 184.959 265.9 184.74C265.529 184.518 265.24 184.244 265.033 183.92C264.83 183.592 264.729 183.184 264.729 182.695C264.729 182.215 264.838 181.799 265.057 181.447C265.279 181.096 265.588 180.824 265.982 180.633C266.377 180.441 266.838 180.346 267.365 180.346C267.771 180.346 268.137 180.406 268.461 180.527C268.789 180.648 269.068 180.826 269.299 181.061C269.529 181.295 269.705 181.584 269.826 181.928C269.951 182.268 270.014 182.658 270.014 183.1H268.607C268.607 182.85 268.578 182.627 268.52 182.432C268.465 182.232 268.383 182.064 268.273 181.928C268.164 181.787 268.031 181.68 267.875 181.605C267.723 181.531 267.549 181.494 267.354 181.494C267.076 181.494 266.848 181.547 266.668 181.652C266.488 181.754 266.355 181.895 266.27 182.074C266.188 182.254 266.146 182.459 266.146 182.689C266.146 182.912 266.189 183.107 266.275 183.275C266.361 183.443 266.508 183.596 266.715 183.732C266.926 183.865 267.215 184 267.582 184.137C268.086 184.316 268.521 184.518 268.889 184.74C269.26 184.959 269.545 185.23 269.744 185.555C269.947 185.875 270.049 186.279 270.049 186.768C270.049 187.271 269.932 187.699 269.697 188.051C269.467 188.402 269.143 188.67 268.725 188.854C268.311 189.033 267.828 189.123 267.277 189.123C266.93 189.123 266.584 189.078 266.24 188.988C265.9 188.895 265.592 188.742 265.314 188.531C265.037 188.32 264.816 188.041 264.652 187.693C264.488 187.342 264.406 186.912 264.406 186.404H265.824C265.824 186.709 265.865 186.963 265.947 187.166C266.029 187.369 266.141 187.529 266.281 187.646C266.422 187.764 266.578 187.848 266.75 187.898C266.926 187.949 267.102 187.975 267.277 187.975C267.57 187.975 267.816 187.926 268.016 187.828C268.219 187.727 268.371 187.586 268.473 187.406C268.578 187.223 268.631 187.014 268.631 186.779Z" fill="#2563EB" fill-opacity="0.3"/>
<line x1="40" y1="100.5" x2="271" y2="100.5" stroke="#2563EB" stroke-opacity="0.3"/>
<line x1="40" y1="166.5" x2="271" y2="166.5" stroke="#2563EB" stroke-opacity="0.3"/>
</svg>
