<svg width="311" height="268" viewBox="0 0 311 268" fill="none" xmlns="http://www.w3.org/2000/svg">
<rect x="0.5" y="0.5" width="310" height="267" fill="#F9F9F9" stroke="#EEEEEE"/>
<path fill-rule="evenodd" clip-rule="evenodd" d="M41 166.357L47.2975 158.313C53.7858 150.27 66.3808 134.184 79.1667 130.737C91.9525 127.29 104.548 136.482 117.333 146.823C130.119 157.164 142.714 168.655 155.5 167.506C168.286 166.357 180.881 152.568 193.667 152.568C206.452 152.568 219.048 166.357 231.833 166.357C244.619 166.357 257.214 152.568 263.702 145.674L270 138.78V219H263.702C257.214 219 244.619 219 231.833 219C219.048 219 206.452 219 193.667 219C180.881 219 168.286 219 155.5 219C142.714 219 130.119 219 117.333 219C104.548 219 91.9525 219 79.1667 219C66.3808 219 53.7858 219 47.2975 219H41L41 166.357Z" fill="#2563EB" fill-opacity="0.3"/>
<rect x="40.5" y="49.5" width="230" height="170" stroke="#2563EB" stroke-opacity="0.3"/>
</svg>
