<svg width="311" height="268" viewBox="0 0 311 268" fill="none" xmlns="http://www.w3.org/2000/svg">
<rect x="0.5" y="0.5" width="310" height="267" fill="#F9F9F9" stroke="#EEEEEE"/>
<rect x="55" y="103" width="47" height="47" rx="10" fill="#2563EB" fill-opacity="0.3"/>
<path d="M87.6476 133.293L88.6895 126.5H82.1719V122.094C82.1719 120.235 83.0807 118.422 85.9998 118.422H88.9648V112.639C88.9648 112.639 86.2752 112.18 83.7049 112.18C78.3348 112.18 74.8281 115.434 74.8281 121.323V126.5H68.8613V133.293H74.8281V149.715C76.0261 149.904 77.2516 150 78.5 150C79.7484 150 80.9739 149.904 82.1719 149.715V133.293H87.6476Z" fill="white"/>
<rect x="132" y="103" width="47" height="47" rx="10" fill="#2563EB" fill-opacity="0.3"/>
<path d="M158.911 124.588L170.303 111.25H167.603L157.714 122.831L149.812 111.25H140.7L152.647 128.764L140.7 142.75H143.4L153.844 130.519L162.19 142.75H171.302L158.911 124.588ZM155.215 128.917L154.004 127.173L144.372 113.297H148.519L156.29 124.496L157.501 126.24L167.605 140.797H163.459L155.215 128.917Z" fill="white"/>
<rect x="209" y="103" width="47" height="47" rx="10" fill="#2563EB" fill-opacity="0.3"/>
<g clip-path="url(#clip0_2597_2732)">
<path d="M218.792 116.449C218.792 115.567 219.101 114.839 219.718 114.266C220.335 113.692 221.138 113.406 222.126 113.406C223.097 113.406 223.882 113.688 224.481 114.253C225.099 114.835 225.408 115.593 225.408 116.529C225.408 117.375 225.108 118.081 224.508 118.646C223.89 119.228 223.079 119.519 222.073 119.519H222.047C221.076 119.519 220.291 119.228 219.692 118.646C219.092 118.063 218.792 117.331 218.792 116.449ZM219.136 139.605V121.927H225.011V139.605H219.136ZM228.266 139.605H234.141V129.734C234.141 129.117 234.211 128.64 234.353 128.305C234.6 127.705 234.974 127.198 235.477 126.783C235.98 126.369 236.611 126.161 237.369 126.161C239.345 126.161 240.333 127.493 240.333 130.157V139.605H246.208V129.469C246.208 126.858 245.591 124.878 244.356 123.528C243.121 122.179 241.489 121.504 239.46 121.504C237.184 121.504 235.411 122.483 234.141 124.441V124.494H234.114L234.141 124.441V121.927H228.266C228.301 122.492 228.319 124.247 228.319 127.193C228.319 130.14 228.301 134.277 228.266 139.605Z" fill="white"/>
</g>
<defs>
<clipPath id="clip0_2597_2732">
<rect width="27.4167" height="27.4167" fill="white" transform="translate(218.792 112.792)"/>
</clipPath>
</defs>
</svg>
