<svg width="311" height="268" viewBox="0 0 311 268" fill="none" xmlns="http://www.w3.org/2000/svg">
<rect x="0.5" y="0.5" width="310" height="267" fill="#F9F9F9" stroke="#EEEEEE"/>
<rect x="40" y="67" width="112" height="40" rx="8" fill="#2563EB" fill-opacity="0.3"/>
<rect x="55" y="77" width="83" height="9" fill="#E7DCF1"/>
<rect x="84" y="94" width="25" height="3" fill="#E7DCF1"/>
<rect x="40" y="114" width="112" height="40" rx="8" fill="#2563EB" fill-opacity="0.3"/>
<rect x="55" y="124" width="83" height="9" fill="#E7DCF1"/>
<rect x="84" y="141" width="25" height="3" fill="#E7DCF1"/>
<rect x="40" y="161" width="112" height="40" rx="8" fill="#2563EB" fill-opacity="0.3"/>
<rect x="55" y="171" width="83" height="9" fill="#E7DCF1"/>
<rect x="84" y="188" width="25" height="3" fill="#E7DCF1"/>
<rect x="159" y="67" width="112" height="40" rx="8" fill="#2563EB" fill-opacity="0.3"/>
<rect x="172" y="77" width="86" height="9" fill="#E7DCF1"/>
<rect x="203" y="94" width="26" height="3" fill="#E7DCF1"/>
<rect x="159" y="114" width="112" height="40" rx="8" fill="#2563EB" fill-opacity="0.3"/>
<rect x="172" y="124" width="86" height="9" fill="#E7DCF1"/>
<rect x="203" y="141" width="26" height="3" fill="#E7DCF1"/>
<rect x="159" y="161" width="112" height="40" rx="8" fill="#2563EB" fill-opacity="0.3"/>
<rect x="172" y="171" width="86" height="9" fill="#E7DCF1"/>
<rect x="203" y="188" width="26" height="3" fill="#E7DCF1"/>
</svg>
