<svg width="311" height="268" viewBox="0 0 311 268" fill="none" xmlns="http://www.w3.org/2000/svg">
<rect x="0.5" y="0.5" width="310" height="267" fill="#F9F9F9" stroke="#EEEEEE"/>
<rect width="132" height="156" transform="translate(16 16)" fill="#2563EB" fill-opacity="0.14"/>
<rect x="87" y="46" width="54" height="56" rx="3" fill="#2563EB" fill-opacity="0.12"/>
<path d="M121 79.4444V68.5556C121 67.7 120.3 67 119.444 67H108.556C107.7 67 107 67.7 107 68.5556V79.4444C107 80.3 107.7 81 108.556 81H119.444C120.3 81 121 80.3 121 79.4444ZM111.278 75.1667L113.222 77.5078L115.944 74L119.444 78.6667H108.556L111.278 75.1667Z" fill="#2563EB" fill-opacity="0.3"/>
<rect x="23" y="63" width="51" height="5" fill="#2563EB" fill-opacity="0.12"/>
<rect x="23" y="71" width="51" height="5" fill="#2563EB" fill-opacity="0.12"/>
<rect x="24" y="115" width="70" height="47" rx="1" fill="#2563EB" fill-opacity="0.08"/>
<rect x="106" y="115" width="36" height="47" rx="1" fill="#2563EB" fill-opacity="0.08"/>
<rect x="23" y="82" width="14" height="7" rx="2" fill="#2563EB" fill-opacity="0.25"/>
<rect width="132" height="13" transform="translate(16 16)" fill="#2563EB" fill-opacity="0.14"/>
<rect x="22" y="19" width="7" height="7" rx="3.5" fill="#2563EB" fill-opacity="0.14"/>
<rect x="40" y="21" width="14" height="3" rx="1.5" fill="#2563EB" fill-opacity="0.14"/>
<rect x="60" y="21" width="14" height="3" rx="1.5" fill="#2563EB" fill-opacity="0.14"/>
<rect x="133" y="21" width="10" height="3" rx="1.5" fill="#2563EB" fill-opacity="0.14"/>
<g clip-path="url(#clip0_3161_911)">
<rect width="132" height="65" transform="translate(163 187)" fill="#2563EB" fill-opacity="0.14"/>
<rect x="234" y="217" width="54" height="56" rx="3" fill="#2563EB" fill-opacity="0.12"/>
<rect x="170" y="232" width="51" height="5" fill="#2563EB" fill-opacity="0.12"/>
<rect x="170" y="240" width="51" height="5" fill="#2563EB" fill-opacity="0.12"/>
<rect width="132" height="13" transform="translate(163 187)" fill="#2563EB" fill-opacity="0.14"/>
<rect x="202" y="192" width="14" height="3" rx="1.5" fill="#2563EB" fill-opacity="0.14"/>
<rect x="222" y="192" width="14" height="3" rx="1.5" fill="#2563EB" fill-opacity="0.14"/>
<rect x="242" y="192" width="14" height="3" rx="1.5" fill="#2563EB" fill-opacity="0.14"/>
<rect x="280" y="192" width="10" height="3" rx="1.5" fill="#2563EB" fill-opacity="0.14"/>
</g>
<rect width="132" height="156" transform="translate(163 16)" fill="#2563EB" fill-opacity="0.14"/>
<rect width="132" height="13" transform="translate(163 16)" fill="#2563EB" fill-opacity="0.14"/>
<rect x="169" y="19" width="7" height="7" rx="3.5" fill="#2563EB" fill-opacity="0.14"/>
<rect x="180" y="21" width="14" height="3" rx="1.5" fill="#2563EB" fill-opacity="0.14"/>
<rect x="280" y="21" width="10" height="3" rx="1.5" fill="#2563EB" fill-opacity="0.14"/>
<rect width="50" height="40" transform="translate(170 118)" fill="#2563EB" fill-opacity="0.12"/>
<path d="M200 141.889V134.111C200 133.5 199.5 133 198.889 133H191.111C190.5 133 190 133.5 190 134.111V141.889C190 142.5 190.5 143 191.111 143H198.889C199.5 143 200 142.5 200 141.889ZM193.056 138.833L194.444 140.506L196.389 138L198.889 141.333H191.111L193.056 138.833Z" fill="#2563EB" fill-opacity="0.3"/>
<rect x="229" y="128" width="40" height="3" fill="#2563EB" fill-opacity="0.12"/>
<rect x="229" y="136" width="40" height="3" fill="#2563EB" fill-opacity="0.12"/>
<rect x="229" y="144" width="30" height="3" fill="#2563EB" fill-opacity="0.12"/>
<rect x="188" y="48" width="80" height="10" fill="#C2D2F5"/>
<rect x="174" y="63" width="109" height="3" fill="#2563EB" fill-opacity="0.12"/>
<rect x="199" y="71" width="57" height="15" rx="4" fill="#2563EB" fill-opacity="0.25"/>
<g clip-path="url(#clip1_3161_911)">
<rect width="132" height="65" transform="translate(16 187)" fill="#2563EB" fill-opacity="0.14"/>
<rect width="132" height="13" transform="translate(16 187)" fill="#2563EB" fill-opacity="0.14"/>
<rect x="87" y="190" width="7" height="7" rx="3.5" fill="#2563EB" fill-opacity="0.14"/>
<rect x="22" y="192" width="14" height="3" rx="1.5" fill="#2563EB" fill-opacity="0.14"/>
<rect x="133" y="192" width="10" height="3" rx="1.5" fill="#2563EB" fill-opacity="0.14"/>
<rect x="41" y="219" width="80" height="10" fill="#C2D2F5"/>
<rect x="27" y="237" width="109" height="3" fill="#2563EB" fill-opacity="0.12"/>
<rect x="46" y="243" width="71" height="3" fill="#2563EB" fill-opacity="0.12"/>
</g>
<defs>
<clipPath id="clip0_3161_911">
<rect width="132" height="65" fill="white" transform="translate(163 187)"/>
</clipPath>
<clipPath id="clip1_3161_911">
<rect width="132" height="65" fill="white" transform="translate(16 187)"/>
</clipPath>
</defs>
</svg>
