<svg width="311" height="268" viewBox="0 0 311 268" fill="none" xmlns="http://www.w3.org/2000/svg">
<rect x="0.5" y="0.5" width="310" height="267" fill="#F9F9F9" stroke="#EEEEEE"/>
<rect x="49.5" y="48.5" width="212" height="170" stroke="#2563EB" stroke-opacity="0.3"/>
<rect x="134" y="149" width="43" height="12" fill="#2563EB" fill-opacity="0.3"/>
<rect x="134" y="165" width="81" height="8" fill="#2563EB" fill-opacity="0.14"/>
<rect x="59" y="90" width="193" height="8" fill="#2563EB" fill-opacity="0.14"/>
<rect x="59" y="106" width="193" height="8" fill="#2563EB" fill-opacity="0.14"/>
<rect x="83" y="122" width="145" height="8" fill="#2563EB" fill-opacity="0.14"/>
<rect width="28" height="28" transform="translate(96 149)" fill="#2563EB" fill-opacity="0.14"/>
<path d="M115 166.889V159.111C115 158.5 114.5 158 113.889 158H106.111C105.5 158 105 158.5 105 159.111V166.889C105 167.5 105.5 168 106.111 168H113.889C114.5 168 115 167.5 115 166.889ZM108.056 163.833L109.444 165.506L111.389 163L113.889 166.333H106.111L108.056 163.833Z" fill="#2563EB" fill-opacity="0.3"/>
<path d="M25 134L24.2929 133.293L23.5858 134L24.2929 134.707L25 134ZM40 135C40.5523 135 41 134.552 41 134C41 133.448 40.5523 133 40 133V134V135ZM31 128L30.2929 127.293L24.2929 133.293L25 134L25.7071 134.707L31.7071 128.707L31 128ZM25 134L24.2929 134.707L30.2929 140.707L31 140L31.7071 139.293L25.7071 133.293L25 134ZM25 134V135H40V134V133H25V134Z" fill="#2563EB" fill-opacity="0.3"/>
<path d="M286 134L286.707 133.293L287.414 134L286.707 134.707L286 134ZM271 135C270.448 135 270 134.552 270 134C270 133.448 270.448 133 271 133V134V135ZM280 128L280.707 127.293L286.707 133.293L286 134L285.293 134.707L279.293 128.707L280 128ZM286 134L286.707 134.707L280.707 140.707L280 140L279.293 139.293L285.293 133.293L286 134ZM286 134V135H271V134V133H286V134Z" fill="#2563EB" fill-opacity="0.3"/>
</svg>
