<svg width="311" height="268" viewBox="0 0 311 268" fill="none" xmlns="http://www.w3.org/2000/svg">
<rect x="0.5" y="0.5" width="310" height="267" fill="#F9F9F9" stroke="#EEEEEE"/>
<rect width="231" height="152" transform="translate(40 58)" fill="#2563EB" fill-opacity="0.08"/>
<path d="M186 157.722V110.278C186 106.55 182.95 103.5 179.222 103.5H131.778C128.05 103.5 125 106.55 125 110.278V157.722C125 161.45 128.05 164.5 131.778 164.5H179.222C182.95 164.5 186 161.45 186 157.722ZM143.639 139.083L152.111 149.284L163.972 134L179.222 154.333H131.778L143.639 139.083Z" fill="#2563EB" fill-opacity="0.1"/>
<path d="M155 119C163.284 119 170 125.716 170 134C170 142.284 163.284 149 155 149C146.716 149 140 142.284 140 134C140 125.716 146.716 119 155 119ZM151.783 126.657C150.983 126.213 150 126.791 150 127.706V140.294C150 141.209 150.983 141.787 151.783 141.343L163.427 134.874C164.112 134.493 164.112 133.507 163.427 133.126L151.783 126.657Z" fill="#2563EB" fill-opacity="0.7"/>
</svg>
